<svg width="1600" height="900" viewBox="0 0 1600 900" fill="none" xmlns="http://www.w3.org/2000/svg">
  <rect width="1600" height="900" fill="#031225"/>
  <rect y="560" width="1600" height="340" fill="#0A223C"/>
  <ellipse cx="820" cy="700" rx="760" ry="120" fill="#051B35"/>
  <circle cx="1240" cy="150" r="220" fill="#0A315A" opacity="0.55"/>
  <circle cx="1360" cy="120" r="130" fill="#FFB81C" opacity="0.16"/>
  <rect x="130" y="450" width="430" height="190" rx="28" fill="#0D314D" stroke="#FFB81C" stroke-opacity="0.45" stroke-width="6"/>
  <rect x="160" y="485" width="170" height="95" rx="14" fill="#102E4B"/>
  <rect x="350" y="505" width="180" height="55" rx="10" fill="#143A5D"/>
  <rect x="390" y="572" width="92" height="26" rx="8" fill="#FFB81C"/>
  <circle cx="220" cy="658" r="62" fill="#102E4B" stroke="#FFC627" stroke-width="8"/>
  <circle cx="470" cy="658" r="62" fill="#102E4B" stroke="#FFC627" stroke-width="8"/>
  <rect x="690" y="420" width="510" height="240" rx="22" fill="#0D314D" stroke="#6FA8DC" stroke-opacity="0.45" stroke-width="6"/>
  <rect x="735" y="475" width="300" height="92" rx="14" fill="#123A5F"/>
  <rect x="1070" y="488" width="95" height="56" rx="10" fill="#FFC627"/>
  <circle cx="790" cy="680" r="70" fill="#123A5F" stroke="#FFC627" stroke-width="8"/>
  <circle cx="1110" cy="680" r="70" fill="#123A5F" stroke="#FFC627" stroke-width="8"/>
  <rect x="1185" y="540" width="255" height="135" rx="20" fill="#0D314D" stroke="#FFB81C" stroke-opacity="0.35" stroke-width="5"/>
  <rect x="1220" y="575" width="75" height="58" rx="10" fill="#153D63"/>
  <rect x="1308" y="586" width="96" height="28" rx="8" fill="#FFD05A"/>
  <rect x="0" y="0" width="1600" height="900" fill="url(#vignette)" opacity="0.55"/>
  <defs>
    <radialGradient id="vignette" cx="0" cy="0" r="1" gradientUnits="userSpaceOnUse" gradientTransform="translate(800 430) rotate(90) scale(520 980)">
      <stop offset="0.45" stop-color="#000000" stop-opacity="0"/>
      <stop offset="1" stop-color="#000000" stop-opacity="0.7"/>
    </radialGradient>
  </defs>
</svg>
